<svg xmlns="http://www.w3.org/2000/svg" viewBox="0 0 50 50"><defs><style>.cls-1{fill:#fff;}</style></defs><title>Instagram</title><g id="Layer_2" data-name="Layer 2"><g id="Layer_1-2" data-name="Layer 1"><circle cx="25" cy="25" r="25"/><path class="cls-1" d="M25,8.34h7a9.66,9.66,0,0,1,9.52,8,10.71,10.71,0,0,1,.16,1.78c0,4.6,0,9.2,0,13.8a9.44,9.44,0,0,1-4.84,8.45A9.16,9.16,0,0,1,32,41.66q-7,0-14.05,0A9.7,9.7,0,0,1,8.32,32V17.86a9.67,9.67,0,0,1,9.51-9.52Zm0,2.58v0c-2.27,0-4.53,0-6.8,0a7.46,7.46,0,0,0-1.57.14,7,7,0,0,0-5.74,7.07q0,6.89,0,13.77a7.1,7.1,0,0,0,7.26,7.2H31.87a7.07,7.07,0,0,0,7.22-7.14c0-4.63,0-9.25,0-13.88a7,7,0,0,0-6.84-7.13C29.83,10.84,27.42,10.92,25,10.92Z"/><path class="cls-1" d="M25,16A9,9,0,1,1,16,25,9,9,0,0,1,25,16Zm0,2.61A6.38,6.38,0,1,0,31.37,25,6.3,6.3,0,0,0,25,18.62Z"/><path class="cls-1" d="M36.56,15.4a1.95,1.95,0,1,1-1.94-2A2,2,0,0,1,36.56,15.4Z"/></g></g></svg>