<svg xmlns="http://www.w3.org/2000/svg" viewBox="0 0 50 50"><defs><style>.cls-1{fill:#fff;}</style></defs><title>Facebook</title><g id="Layer_2" data-name="Layer 2"><g id="Layer_1-2" data-name="Layer 1"><path d="M25.11,50A25,25,0,1,1,50,24.47,25,25,0,0,1,25.11,50Zm2.05-9.65V25.9c1.18,0,2.27,0,3.36,0,.25,0,.68-.21.7-.36.2-1.55.33-3.11.49-4.79H27.12c0-1,0-1.9,0-2.8,0-1.14.46-1.56,1.6-1.58.94,0,1.89,0,2.87,0V11.3c-2.17.1-4.3.09-6.39.35a4.49,4.49,0,0,0-3.3,2.51A7.93,7.93,0,0,0,21.11,18c0,.89,0,1.78,0,2.76-.8,0-1.5,0-2.19,0-.52,0-.69.18-.68.68,0,.87,0,1.74,0,2.61,0,1.85,0,1.91,1.83,1.83.9,0,1.06.29,1.05,1.1,0,4.1,0,8.19,0,12.29v1.09Z"/><path class="cls-1" d="M27.16,40.35H21.1V39.26c0-4.1,0-8.19,0-12.29,0-.81-.15-1.14-1.05-1.1-1.83.08-1.83,0-1.83-1.83,0-.87,0-1.74,0-2.61,0-.5.16-.71.68-.68.69,0,1.39,0,2.19,0,0-1,0-1.87,0-2.76a7.93,7.93,0,0,1,.79-3.83,4.49,4.49,0,0,1,3.3-2.51c2.09-.26,4.22-.25,6.39-.35v5.05c-1,0-1.93,0-2.87,0-1.14,0-1.57.44-1.6,1.58,0,.9,0,1.79,0,2.8h4.59c-.16,1.68-.29,3.24-.49,4.79,0,.15-.45.35-.7.36-1.09,0-2.18,0-3.36,0Z"/></g></g></svg>