<svg xmlns="http://www.w3.org/2000/svg" viewBox="0 0 16.54 17.97"><g id="Layer_2" data-name="Layer 2"><g id="Layer_1-2" data-name="Layer 1"><path d="M1.78,5.48H.67A.68.68,0,0,1,0,4.85a.71.71,0,0,1,.42-.74,1.12,1.12,0,0,1,.31-.05h1.5A.7.7,0,0,1,3,4.71c.09.49.18,1,.28,1.47a1.24,1.24,0,0,0,0,.16H7.08a.2.2,0,0,1,.22.15,5.06,5.06,0,0,0,4,3.16,4.43,4.43,0,0,0,2-.14l.11,0c-.2.58-.39,1.15-.6,1.69a.62.62,0,0,1-.62.38H4.29l.25,1.28h8.07a.67.67,0,0,1,.69.44.71.71,0,0,1-.58,1H4.14c-.49,0-.71-.19-.81-.71s-.28-1.35-.41-2c-.37-1.95-.73-3.89-1.1-5.83C1.81,5.62,1.79,5.56,1.78,5.48Z"/><path d="M5.8,16.57A1.36,1.36,0,0,1,4.46,18a1.37,1.37,0,0,1-1.3-1.42A1.35,1.35,0,0,1,4.5,15.16,1.35,1.35,0,0,1,5.8,16.57Z"/><path d="M12.11,15.16a1.41,1.41,0,0,1,0,2.81,1.36,1.36,0,0,1-1.3-1.41A1.34,1.34,0,0,1,12.11,15.16Z"/><circle cx="12.09" cy="4.45" r="4.45"/></g></g></svg>