<svg xmlns="http://www.w3.org/2000/svg" viewBox="0 0 50 50"><defs><style>.cls-1{fill:#fff;}</style></defs><title> Pinterest</title><g id="Layer_2" data-name="Layer 2"><g id="Layer_1-2" data-name="Layer 1"><path d="M25,0A25,25,0,1,1,0,24.24,25,25,0,0,1,25,0ZM23.85,31.08a9.36,9.36,0,0,0,.71.77,5.94,5.94,0,0,0,5.14,1.27,8.94,8.94,0,0,0,6.46-4.65A14.16,14.16,0,0,0,38,20.81a10,10,0,0,0-6-9.16,12.58,12.58,0,0,0-7.57-1.05A12,12,0,0,0,15,16.82a9.9,9.9,0,0,0-.5,9,5.23,5.23,0,0,0,2.7,2.81c.65.3,1,.14,1.16-.56.1-.39.18-.8.3-1.19a1,1,0,0,0-.24-1.08,4.11,4.11,0,0,1-1-2.11,8.24,8.24,0,0,1,3.15-8.28,9.13,9.13,0,0,1,7.91-1.55,6.25,6.25,0,0,1,5.14,5.66,13.28,13.28,0,0,1-1.47,7.69A5.34,5.34,0,0,1,29,29.94a3.38,3.38,0,0,1-2.24,0,2.72,2.72,0,0,1-1.69-3.38c.38-1.42.86-2.82,1.21-4.26a9.13,9.13,0,0,0,.3-2.55,2.36,2.36,0,0,0-3.25-2.1,3.49,3.49,0,0,0-2,1.82,6.66,6.66,0,0,0-.24,5.2,1.8,1.8,0,0,1,.05.89c-.5,2.19-1,4.39-1.56,6.57a21.83,21.83,0,0,0-.73,9.4,2,2,0,0,0,.21.45,1.65,1.65,0,0,0,.4-.27A17.33,17.33,0,0,0,23,34.32C23.23,33.25,23.55,32.2,23.85,31.08Z"/><path class="cls-1" d="M23.85,31.08c-.3,1.12-.62,2.17-.83,3.24a17.33,17.33,0,0,1-3.56,7.35,1.65,1.65,0,0,1-.4.27,2,2,0,0,1-.21-.45,21.83,21.83,0,0,1,.73-9.4c.58-2.18,1.06-4.38,1.56-6.57a1.8,1.8,0,0,0-.05-.89,6.66,6.66,0,0,1,.24-5.2,3.49,3.49,0,0,1,2-1.82,2.36,2.36,0,0,1,3.25,2.1,9.13,9.13,0,0,1-.3,2.55c-.35,1.44-.83,2.84-1.21,4.26a2.72,2.72,0,0,0,1.69,3.38,3.38,3.38,0,0,0,2.24,0,5.34,5.34,0,0,0,3.09-2.77,13.28,13.28,0,0,0,1.47-7.69,6.25,6.25,0,0,0-5.14-5.66,9.13,9.13,0,0,0-7.91,1.55,8.24,8.24,0,0,0-3.15,8.28,4.11,4.11,0,0,0,1,2.11,1,1,0,0,1,.24,1.08c-.12.39-.2.8-.3,1.19-.18.7-.51.86-1.16.56a5.23,5.23,0,0,1-2.7-2.81,9.9,9.9,0,0,1,.5-9,12,12,0,0,1,9.48-6.22A12.58,12.58,0,0,1,32,11.65a10,10,0,0,1,6,9.16,14.16,14.16,0,0,1-1.88,7.66,8.94,8.94,0,0,1-6.46,4.65,5.94,5.94,0,0,1-5.14-1.27A9.36,9.36,0,0,1,23.85,31.08Z"/></g></g></svg>