<svg xmlns="http://www.w3.org/2000/svg" viewBox="0 0 50 50"><defs><style>.cls-1{fill:#fff;}</style></defs><title>Github</title><g id="Layer_2" data-name="Layer 2"><g id="Layer_1-2" data-name="Layer 1"><path d="M50,25A25,25,0,1,1,25,0,25,25,0,0,1,50,25Z"/><path class="cls-1" d="M39.07,17.38a1.38,1.38,0,0,1-.1-1,10.09,10.09,0,0,0-.2-5.23c-.2-.69-.6-1-1.23-.82-1.75.63-3.46,1.39-5.21,2a3.52,3.52,0,0,1-1.79.28,26.35,26.35,0,0,0-10.76,0,3.12,3.12,0,0,1-1.68-.28c-1.63-.64-3.22-1.4-4.86-2a1.12,1.12,0,0,0-1.67,1.1c-.08,1.63-.06,3.26-.11,4.89a2.26,2.26,0,0,1-.2,1.15c-5.36,7.73-1.2,17.22,8.19,18.65l.74.1c-.4,1-.75,2.07-1.2,3.07a1.43,1.43,0,0,1-.77.58,5.2,5.2,0,0,1-6.38-2,8.94,8.94,0,0,0-2.09-2.24A6.29,6.29,0,0,0,7.37,35a.77.77,0,0,0-.65.33A.73.73,0,0,0,7,36c2.05,1.2,2.84,3.32,4,5.22s3.28,2.24,5.37,2.23c.8,0,1.6-.12,2.56-.2,0,1.65.06,3.21,0,4.77a1,1,0,0,1-.76,1A25.22,25.22,0,0,0,32.13,49c-.51-.23-.68-.9-.67-2.12,0-1.53,0-3.07.05-4.61,0-2.08,0-4.15-1.56-5.94.93-.17,1.72-.28,2.49-.46,5.61-1.31,8.48-4.77,8.84-10.56A10.79,10.79,0,0,0,39.07,17.38Z"/></g></g></svg>