<svg xmlns="http://www.w3.org/2000/svg" viewBox="0 0 50 50"><defs><style>.cls-1{fill:#fff;}</style></defs><title>Twitter</title><g id="Layer_2" data-name="Layer 2"><g id="Layer_1-2" data-name="Layer 1"><path d="M50,25A25,25,0,1,1,25,0,25,25,0,0,1,50,25ZM11.22,35.21c.08,0,.14.11.22.15a16.57,16.57,0,0,0,3.68,1.69,18.17,18.17,0,0,0,8.09.7,16.3,16.3,0,0,0,8.53-3.67,17.91,17.91,0,0,0,6.57-14.29.66.66,0,0,1,.3-.63,8.46,8.46,0,0,0,.81-.67,11.91,11.91,0,0,0,1.95-2.27c-.57.19-1.1.38-1.64.53s-1.07.25-1.6.37l0-.11a6.37,6.37,0,0,0,2.47-3.29L40,14a11.6,11.6,0,0,1-3.08,1.12.61.61,0,0,1-.47-.12,6.24,6.24,0,0,0-10.55,3.74c-.06.69,0,1.39,0,2.13A17.75,17.75,0,0,1,13.16,14.4,5.78,5.78,0,0,0,12.34,17a6.36,6.36,0,0,0,2.57,5.61,6.2,6.2,0,0,1-2.67-.72,6.38,6.38,0,0,0,4.91,6.2,6.79,6.79,0,0,1-2.69.1,6.17,6.17,0,0,0,1.3,2.26,6.45,6.45,0,0,0,4.38,2.1A12.8,12.8,0,0,1,11.22,35.21Z"/><path class="cls-1" d="M11.22,35.21a12.8,12.8,0,0,0,8.92-2.62,6.45,6.45,0,0,1-4.38-2.1,6.17,6.17,0,0,1-1.3-2.26,6.79,6.79,0,0,0,2.69-.1,6.38,6.38,0,0,1-4.91-6.2,6.2,6.2,0,0,0,2.67.72A6.36,6.36,0,0,1,12.34,17a5.78,5.78,0,0,1,.82-2.64,17.75,17.75,0,0,0,12.72,6.49c0-.74-.05-1.44,0-2.13A6.24,6.24,0,0,1,36.44,15a.61.61,0,0,0,.47.12A11.6,11.6,0,0,0,40,14l.57-.3A6.37,6.37,0,0,1,38.09,17l0,.11c.53-.12,1.08-.22,1.6-.37s1.07-.34,1.64-.53a11.91,11.91,0,0,1-1.95,2.27,8.46,8.46,0,0,1-.81.67.66.66,0,0,0-.3.63,17.91,17.91,0,0,1-6.57,14.29,16.3,16.3,0,0,1-8.53,3.67,18.17,18.17,0,0,1-8.09-.7,16.57,16.57,0,0,1-3.68-1.69C11.36,35.32,11.3,35.26,11.22,35.21Z"/></g></g></svg>